<?xml version='1.0' encoding='utf-8'?>
<svg xmlns:xlink="http://www.w3.org/1999/xlink" xmlns="http://www.w3.org/2000/svg" version="1.1" id="Capa_1" x="0px" y="0px" width="2834.479px" height="2834.479px" viewBox="0 0 2834.479 2834.479" enable-background="new 0 0 2834.479 2834.479"> <path fill="#C6C6C6" d="M2584.678,2636.602c0,0,0.992,172.546-362.107,147.44s-401.703-102.701-536.818-63.903 s-819.658,164.191-1196.732,38.798c-630.536-209.68-225.818-323.279-52.099-349.015 C610.642,2384.185,2441.288,2315.442,2584.678,2636.602z"/> <g id="Veladora1"> <path fill="#FFFFFF" d="M353.25,622.472c-23.347,63.035-47.978,125.634-69.58,189.261c-13.891,40.915-25.174,82.952-34.094,125.232 c-5.697,27.003-1.463,53.767,26.255,70.426c38.047,22.867,67.746,10.271,78.174-33.201c1.416-5.902,6.035-11.036,9.171-16.526 c2.228,0.79,4.456,1.581,6.684,2.371c0.49,9.949,1.339,19.895,1.412,29.846c0.531,72.594,2.867,145.409-14.205,216.716 c-3.611,15.081-13.505,28.555-19.197,43.275c-4.399,11.374-10.993,24.281-9.083,35.187c3.356,19.152,9.445,39.227,19.801,55.464 c22.544,35.345,57.602,36.556,85.709,5.154c25.306-28.273,32.774-63.445,36.004-99.756c1.157-13.007,0.186-26.203,1.304-39.261 c4.601,40.591,2.78,80.491-14.399,118.391c-16.989,37.479-41.089,53.021-82.72,51.85c0,6.008,0,11.974,0,17.941 c0,267.127,0.184,534.254-0.311,801.38c-0.045,24.209,9.364,41.697,27.575,55.794c38.272,29.626,83.108,45.087,128.668,58.514 c105.192,31.001,213.24,46.771,322.228,53.939c91.184,5.998,182.755,9.568,274.107,8.78 c167.761-1.448,334.759-14.405,497.144-60.102c42.991-12.098,84.27-31.518,124.75-50.888 c30.492-14.591,43.553-40.259,43.481-76.635c-0.981-497.071-0.661-994.145-0.661-1491.218c0-6.799,0-13.597,0-19.511 c-28.443,11.034-55.742,23.781-84.302,32.297c-84.145,25.09-170.931,37.733-258.091,43.748 c-123.087,8.493-246.468,15.056-369.805,16.836c-94.724,1.366-189.65-4.591-284.326-10.07 c-34.749-2.011-69.037-12.002-103.535-18.354c0.25-1.497,0.5-2.995,0.75-4.492c32.874,2.666,65.707,6.129,98.63,7.837 c73.617,3.818,147.25,8.073,220.931,9.779c140.674,3.259,281.24-0.651,421.336-14.323c101.23-9.88,202.511-20.765,299.31-54.774 c16.955-5.957,33.38-15.004,48.054-25.433c14.958-10.63,15.599-22.341,0.136-31.539c-23.738-14.121-48.964-28.828-75.456-34.642 c-74.073-16.254-148.629-32.916-223.893-40.536c-120.387-12.189-241.499-17.216-364.691-25.429c0,41.225,0,78.02,0,114.223 c-11.719,4.614-15.19,1.266-15.048-8.944c0.374-26.879,0.118-53.767,0.114-80.651c-0.001-6.16,0-12.321,0-19.583 c-38.05,0-74.469-1.236-110.776,0.256c-76.497,3.143-153.075,5.976-229.364,12.118c-108.806,8.759-217.38,20.467-321.981,54.568 c-13.408,4.371-26.286,10.368-39.552,15.668C348.074,614.163,353.25,622.472,353.25,622.472z"/> <path d="M1029.407,596.55c-70.294,9.898-141.958,10.373-212.918,39.661c23.661,16.543,47.111,19.757,69.789,22.603 c127.532,16.004,255.236,17.15,382.799,0.28c20.447-2.704,41.802-5.219,61.964-22.131c-11.604-6.631-21.032-12.017-30.764-17.578 c1.29-0.345,3.097-1.45,3.894-0.948c10.056,6.321,19.965,12.873,29.913,19.367c-9.346,7.284-17.628,17.973-28.217,21.285 c-57.156,17.879-116.472,22.249-175.964,24.609c-87.555,3.473-174.862,2.132-261.321-14.092 c-13.408-2.516-27.272-5.325-39.366-11.205c-8.699-4.229-14.804-13.791-22.067-20.974c7.348-6.445,13.756-16.43,22.219-18.678 c26.375-7.005,53.325-13.156,80.426-15.802C949.495,599.071,989.52,598.519,1029.407,596.55z"/> <g id="Veladora1_2_"> <path fill="#CBBBA0" d="M1923.476,2347.999c-42.805,65.018-86.491,132.67-131.705,199.287 c-14.184,20.899-28.966,45.054-49.657,57.076c-37.582,21.835-78.714,39.149-120.297,52.183 c-95.24,29.853-194.054,42.326-293.117,51.911c-119.688,11.58-239.743,14.123-359.784,9.518 c-158.432-6.078-316.157-19.675-468.318-68.264c-34.456-11.003-67.107-28.394-99.399-45.138 c-17.235-8.937-28.768-24.506-36.979-43.456c-6.452-14.891-19.873-26.614-29.095-40.478 c-36.715-55.195-73.006-110.673-109.422-166.066c-2.085-3.171-3.894-6.523-5.23-8.778c43.423,14.51,86.441,30.952,130.615,43.242 c113.76,31.649,230.468,47.093,347.71,58.403c145.807,14.065,292.064,19.386,438.462,16.558 c206.516-3.99,412.369-16.999,614.229-64.56C1809.986,2385.652,1866.893,2365.119,1923.476,2347.999z"/> <path fill="#A48A7B" d="M359.581,2143.069c0,19.919,1.057,35.967-0.224,51.826c-2.539,31.448,10.511,56.09,36.245,70.808 c33.974,19.43,69.202,37.977,105.999,50.899c87.703,30.798,179.393,44.638,271.416,55.292 c117.697,13.626,235.918,19.088,354.317,16.6c168.83-3.548,337.054-14.981,500.511-61.289 c43.01-12.185,84.588-30.893,124.982-50.417c37.371-18.064,58.1-48.899,52.482-93.208c-1.352-10.666-0.201-21.65-0.201-34.902 c57.826,18.595,115.329,33.845,159.976,76.156c20.734,19.649,18.962,27.104,6.157,51.434 c-18.16,34.506-48.202,51.717-82.033,65.674c-77.614,32.019-159,49.949-241.265,64.025 c-159.187,27.237-319.766,39.147-481.142,42.487c-153.321,3.174-306.409-0.32-459.07-14.932 c-138.35-13.242-275.907-31.72-408.704-75.347c-17.32-5.689-33.827-13.842-51.126-19.606 c-38.782-12.922-64.098-40.249-81.989-75.442c-2.44-4.799-3.067-12.823-0.679-17.294c5.015-9.388,11.294-18.946,19.333-25.735 C234.465,2177.953,295.899,2162.098,359.581,2143.069z"/> <path opacity="0.5" fill="#FCEA10" d="M1044.81,21.908c79.875,34.938,150.669,75.832,177.734,149.694 c19.325,52.738,36.994,105.91,53.099,159.335c5.13,17.018,4.944,35.572,3.564,53.241c-3.263,41.768-29.686,66.941-81.315,73.272 c-66.14,8.11-132.193,5.128-195.214-14.966c-61.804-19.706-80.376-54.776-56.28-104.283c5.889-12.1,14.136-23.522,22.054-34.919 c59.587-85.762,91.254-176.303,74.171-275.326C1042.414,26.743,1043.504,25.387,1044.81,21.908z"/> <g> <g> <defs> <path id="SVGID_1_" d="M1066.011,84.064c53.127,28.992,100.214,62.925,118.216,124.216 c12.853,43.762,24.606,87.885,35.318,132.216c3.412,14.121,3.289,29.518,2.37,44.18c-2.17,34.659-19.745,55.548-54.085,60.801 c-43.992,6.73-87.926,4.255-129.843-12.419c-41.108-16.352-53.46-45.454-37.434-86.534 c3.917-10.041,9.402-19.519,14.669-28.976c39.633-71.166,60.695-146.297,49.333-228.466 C1064.418,88.076,1065.143,86.951,1066.011,84.064z"/> </defs> <clipPath id="SVGID_2_"> <use xlink:href="#SVGID_1_" overflow="visible"/> </clipPath> <rect x="984.528" y="84.064" clip-path="url(#SVGID_2_)" fill="#E94E1B" width="238.429" height="368.143"/> <path clip-path="url(#SVGID_2_)" fill="#E94E1B" d="M1223.957,320.237v132.97H983.528V169.493h-2.776 c1.575-3.234,3.2-6.407,4.872-9.518c3.344-6.222,6.88-12.193,10.592-17.892c14.849-22.797,32.53-41.245,52.163-53.994 c4.908-3.187,9.939-6.018,15.077-8.472v3.448h97.6v-3.448c5.139,2.454,10.169,5.285,15.077,8.472 c19.633,12.749,37.314,31.198,52.163,53.994h-4.339V320.237z"/> <path clip-path="url(#SVGID_2_)" fill="#E94E1B" d="M1223.957,320.237v132.97H983.528V181.131h-5.65 c5.824-13.236,12.457-25.566,19.788-36.821c14.663-22.512,32.123-40.73,51.511-53.32c9.694-6.295,19.87-11.183,30.419-14.497 v6.571h65.319v-6.571c10.549,3.314,20.725,8.202,30.419,14.497c19.388,12.59,36.848,30.808,51.511,53.32h-2.888V320.237z"/> <path clip-path="url(#SVGID_2_)" fill="#E94E1B" d="M1223.957,320.237v132.97H983.528V182.892h-3.949 c5.751-13.069,12.299-25.242,19.538-36.355c14.477-22.227,31.716-40.214,50.859-52.645c9.571-6.215,19.618-11.041,30.034-14.314 v3.485h64.492v-3.485c10.416,3.272,20.463,8.098,30.034,14.314c19.143,12.431,36.381,30.418,50.859,52.645h-1.438V320.237z"/> <path clip-path="url(#SVGID_2_)" fill="#E94E1B" d="M1223.957,320.237v94.392v38.579H983.528V184.653h-2.248 c5.677-12.901,12.141-24.918,19.287-35.889c28.584-43.884,68.072-71.027,111.689-71.027c43.617,0,83.105,27.143,111.689,71.027 c1.786,2.743,3.53,5.551,5.23,8.422h-5.217V320.237z"/> <path clip-path="url(#SVGID_2_)" fill="#E94E1B" d="M1223.957,320.237v93.166v39.805H983.528V186.414h-0.547 c5.603-12.734,11.984-24.595,19.037-35.423c28.212-43.314,67.187-70.104,110.238-70.104c43.051,0,82.026,26.79,110.238,70.104 c1.763,2.707,3.484,5.479,5.162,8.312h-3.699V320.237z"/> <path clip-path="url(#SVGID_2_)" fill="#E94E1B" d="M1223.957,320.237v91.94v41.03H986.791v3.763 c-0.715-1.544-1.418-3.101-2.109-4.672c-2.765-6.283-5.338-12.781-7.706-19.475h6.553V207.65h-6.553 c2.368-6.694,4.942-13.192,7.706-19.475c5.53-12.566,11.826-24.271,18.786-34.957c27.841-42.744,66.303-69.182,108.788-69.182 c42.484,0,80.946,26.438,108.788,69.182c1.74,2.671,3.439,5.407,5.094,8.203h-2.18V320.237z"/> <path clip-path="url(#SVGID_2_)" fill="#E94E1B" d="M1223.957,320.237v90.714v42.256H990.615v6.468 c-1.457-2.991-2.868-6.038-4.232-9.137c-2.728-6.199-5.267-12.611-7.604-19.215h4.749V209.151h-4.749 c2.337-6.604,4.876-13.016,7.604-19.215c5.456-12.398,11.668-23.947,18.536-34.491c27.47-42.174,65.419-68.259,107.337-68.259 c41.918,0,79.867,26.085,107.337,68.259c3.434,5.272,6.704,10.795,9.797,16.55h-5.433V320.237z"/> <path clip-path="url(#SVGID_2_)" fill="#E94E1B" d="M1223.957,320.237v89.488v43.482H992.259v4.584 c-1.437-2.951-2.829-5.956-4.175-9.014c-2.691-6.115-5.195-12.44-7.501-18.955h2.945v-219.17h-2.945 c2.305-6.515,4.81-12.84,7.501-18.955c5.382-12.231,11.511-23.624,18.285-34.025c27.099-41.604,64.535-67.337,105.887-67.337 s78.788,25.733,105.887,67.337c3.387,5.201,6.613,10.649,9.665,16.326h-3.85V320.237z"/> <path clip-path="url(#SVGID_2_)" fill="#E94E1B" d="M1223.957,320.237v88.262v44.708H993.903v2.699 c-1.418-2.91-2.791-5.874-4.118-8.89c-2.654-6.032-5.124-12.27-7.398-18.696h1.141V212.153h-1.141 c2.274-6.426,4.744-12.664,7.398-18.696c5.308-12.063,11.353-23.3,18.035-33.559c26.728-41.034,63.651-66.414,104.436-66.414 c40.785,0,77.709,25.38,104.436,66.414c3.341,5.129,6.523,10.503,9.532,16.103h-2.267V320.237z"/> <path clip-path="url(#SVGID_2_)" fill="#E94E1B" d="M1223.957,320.237v87.037v45.934H995.546v0.815 c-1.398-2.87-2.752-5.793-4.061-8.767c-5.235-11.896-9.743-24.606-13.428-37.982h5.471V233.2h-5.471 c7.37-26.752,18.034-50.843,31.213-71.075c26.356-40.464,62.767-65.492,102.986-65.492c40.218,0,76.629,25.028,102.986,65.492 c3.295,5.058,6.432,10.357,9.4,15.879h-0.684V320.237z"/> <path clip-path="url(#SVGID_2_)" fill="#E94F1B" d="M1223.957,320.237v85.811v47.16H999.29v3.135 c-0.711-1.388-1.41-2.79-2.1-4.204c-1.378-2.829-2.713-5.711-4.003-8.643c-5.161-11.728-9.606-24.26-13.239-37.447h3.581 V234.426h-3.581c7.266-26.375,17.78-50.127,30.773-70.074c25.985-39.894,61.883-64.57,101.535-64.57 c39.652,0,75.55,24.675,101.535,64.57c3.248,4.987,6.341,10.211,9.268,15.655c1.463,2.722,2.885,5.499,4.263,8.328h-3.364 V320.237z"/> <path clip-path="url(#SVGID_2_)" fill="#E94F1B" d="M1223.957,320.237v84.585v36.912h5.667 c-2.544,5.78-5.264,11.363-8.148,16.729v-5.256h-218.44v5.256c-2.885-5.366-5.604-10.949-8.148-16.729 c-5.087-11.561-9.469-23.913-13.05-36.912h1.69v-169.17h-1.69c7.162-25.998,17.526-49.411,30.333-69.073 c25.614-39.324,60.999-63.647,100.085-63.647c39.085,0,74.471,24.323,100.085,63.647c6.403,9.831,12.196,20.6,17.283,32.161 h-5.667V320.237z"/> <path clip-path="url(#SVGID_2_)" fill="#E94F1B" d="M1223.957,320.237v83.359v36.377h3.966 c-2.507,5.697-5.187,11.198-8.03,16.486v-3.252h-215.274v3.252c-2.843-5.288-5.523-10.79-8.03-16.486 c-5.013-11.393-9.332-23.567-12.861-36.377c-1.765-6.405-3.332-12.97-4.691-19.676h4.491V256.554h-4.491 c1.359-6.706,2.926-13.27,4.691-19.676c7.059-25.621,17.272-48.695,29.894-68.072c25.243-38.755,60.115-62.725,98.634-62.725 s73.391,23.97,98.634,62.725c6.311,9.689,12.019,20.301,17.033,31.694h-3.966V320.237z"/> <path clip-path="url(#SVGID_2_)" fill="#E94F1B" d="M1223.957,320.237v82.133v35.842h2.265 c-2.47,5.613-5.111,11.033-7.912,16.244v-1.249h-212.108v1.249c-2.801-5.211-5.442-10.631-7.912-16.244 c-4.94-11.226-9.194-23.22-12.672-35.842c-3.477-12.622-6.178-25.872-8.008-39.608h5.919v-85.05h-5.919 c1.831-13.736,4.531-26.986,8.008-39.608c6.955-25.244,17.018-47.978,29.454-67.071c24.871-38.185,59.231-61.802,97.184-61.802 c37.953,0,72.312,23.618,97.184,61.802c6.218,9.546,11.843,20.003,16.782,31.228h-2.265V320.237z"/> <path clip-path="url(#SVGID_2_)" fill="#E94F1B" d="M1223.957,320.237v80.907v35.307h0.564 c-2.433,5.529-5.035,10.869-7.794,16.002c-1.38,2.566-2.798,5.081-4.255,7.542v-6.788H1012.04v6.788 c-1.457-2.461-2.876-4.976-4.255-7.542c-2.759-5.133-5.361-10.473-7.794-16.002c-4.866-11.058-9.057-22.874-12.483-35.307 c-6.851-24.868-10.639-52.208-10.639-80.907c0-114.796,60.615-207.857,135.387-207.857c37.386,0,71.233,23.265,95.733,60.88 c6.125,9.404,11.666,19.704,16.532,30.762h-0.564V320.237z"/> <path clip-path="url(#SVGID_2_)" fill="#E9501B" d="M1223.957,320.237v79.681v17.894h5.541 c-2.053,5.801-4.283,11.433-6.679,16.878s-4.958,10.704-7.676,15.759c-1.359,2.528-2.756,5.004-4.191,7.428v-4.67h-197.395v4.67 c-1.435-2.424-2.832-4.9-4.191-7.428c-2.717-5.055-5.28-10.314-7.676-15.759c-4.792-10.891-8.92-22.527-12.293-34.772 c-6.747-24.491-10.478-51.417-10.478-79.681c0-113.057,59.696-204.708,133.336-204.708c36.82,0,70.154,22.913,94.283,59.957 c6.032,9.261,11.489,19.406,16.281,30.296c2.396,5.445,4.626,11.077,6.679,16.878h-5.541V320.237z"/> <path clip-path="url(#SVGID_2_)" fill="#E9501B" d="M1223.957,320.237v78.456v17.619h3.738 c-2.021,5.712-4.217,11.257-6.576,16.618c-2.359,5.361-4.882,10.539-7.558,15.517c-1.338,2.489-2.714,4.927-4.126,7.313v-2.553 h-194.358v2.553c-1.413-2.386-2.789-4.825-4.126-7.313c-2.675-4.977-5.198-10.155-7.558-15.517 c-4.719-10.723-8.783-22.181-12.104-34.238c-6.643-24.114-10.317-50.626-10.317-78.456 c0-111.317,58.778-201.558,131.285-201.558c36.253,0,69.074,22.56,92.832,59.035c5.939,9.119,11.312,19.107,16.031,29.83 c2.359,5.361,4.555,10.907,6.576,16.618h-3.738V320.237z"/> <path clip-path="url(#SVGID_2_)" fill="#E9501B" d="M1223.957,320.237v77.23v17.344h1.934 c-1.99,5.623-4.151,11.081-6.473,16.359s-4.806,10.375-7.44,15.274c-1.317,2.45-2.671,4.85-4.062,7.199v-0.435h-191.321v0.435 c-1.391-2.349-2.745-4.749-4.062-7.199c-2.634-4.9-5.117-9.996-7.44-15.274c-4.645-10.555-8.645-21.834-11.915-33.703 c-6.54-23.737-10.156-49.835-10.156-77.23c0-109.578,57.86-198.409,129.233-198.409c35.687,0,67.995,22.208,91.382,58.113 c5.847,8.976,11.136,18.809,15.781,29.364c2.322,5.278,4.484,10.736,6.473,16.359h-1.934V320.237z"/> <path clip-path="url(#SVGID_2_)" fill="#E9511B" d="M1223.957,320.237v76.004h5.486c-6.436,23.361-15.748,44.398-27.256,62.065 v-5.099h-179.862v5.099c-23.015-35.335-37.251-84.15-37.251-138.069c0-107.839,56.941-195.259,127.182-195.259 c35.12,0,66.916,21.855,89.931,57.19c11.508,17.668,20.82,38.705,27.256,62.065h-5.486V320.237z"/> <path clip-path="url(#SVGID_2_)" fill="#E9511B" d="M1223.957,320.237v74.778h3.596c-6.332,22.984-15.494,43.682-26.817,61.064 v-2.872h-176.961v2.872c-22.644-34.765-36.65-82.793-36.65-135.842c0-106.099,56.023-192.11,125.131-192.11 c34.554,0,65.836,21.503,88.481,56.268c11.322,17.383,20.484,38.081,26.817,61.064h-3.596V320.237z"/> <path clip-path="url(#SVGID_2_)" fill="#E9521B" d="M1223.957,320.237v73.552h1.706c-6.228,22.607-15.24,42.966-26.377,60.063 v-0.645h-174.06v0.645c-22.273-34.195-36.049-81.435-36.049-133.615c0-104.36,55.104-188.961,123.079-188.961 c33.987,0,64.757,21.15,87.03,55.345c11.136,17.098,20.149,37.456,26.377,60.063h-1.706V320.237z"/> <path clip-path="url(#SVGID_2_)" fill="#E9521B" d="M1223.957,320.237v37.447h6.868c-1.612,12.096-3.99,23.764-7.052,34.879 c-6.124,22.23-14.986,42.25-25.937,59.062c-1.369,2.102-2.77,4.153-4.203,6.152v-4.571h-162.753v4.571 c-1.433-1.999-2.834-4.051-4.203-6.152c-21.902-33.625-35.448-80.078-35.448-131.389c0-102.621,54.186-185.811,121.028-185.811 c33.421,0,63.678,20.798,85.58,54.423c10.951,16.813,19.813,36.832,25.937,59.062c3.062,11.115,5.44,22.783,7.052,34.879h-6.868 V320.237z"/> <path clip-path="url(#SVGID_2_)" fill="#E9531B" d="M1223.957,320.237v36.813h4.858c-1.585,11.891-3.922,23.361-6.933,34.288 c-6.021,21.853-14.732,41.534-25.498,58.061c-1.346,2.066-2.723,4.083-4.132,6.048v-2.239h-159.994v2.239 c-1.409-1.966-2.786-3.982-4.132-6.048c-21.531-33.055-34.847-78.721-34.847-129.162c0-100.881,53.268-182.662,118.977-182.662 c32.854,0,62.599,20.445,84.129,53.5c10.765,16.528,19.477,36.208,25.498,58.061c3.01,10.927,5.348,22.397,6.933,34.288h-4.858 V320.237z"/> <path clip-path="url(#SVGID_2_)" fill="#E9541B" d="M1229.181,320.237c0,49.571-13.087,94.449-34.247,126.935 c-2.645,4.061-5.416,7.928-8.303,11.586v-5.55H1037.88v5.55c-2.887-3.658-5.658-7.525-8.303-11.586 c-21.159-32.485-34.247-77.364-34.247-126.935c0-99.142,52.349-179.513,116.925-179.513 C1176.832,140.724,1229.181,221.095,1229.181,320.237z"/> <path clip-path="url(#SVGID_2_)" fill="#E9541B" d="M1227.13,320.237c0,48.701-12.858,92.792-33.646,124.708 c-2.599,3.989-5.321,7.789-8.158,11.383v-3.12h-146.141v3.12c-2.837-3.594-5.559-7.393-8.158-11.383 c-20.788-31.915-33.646-76.006-33.646-124.708c0-97.403,51.431-176.363,114.874-176.363S1227.13,222.834,1227.13,320.237z"/> <path clip-path="url(#SVGID_2_)" fill="#E9551B" d="M1225.078,320.237c0,47.832-12.628,91.135-33.045,122.481 c-2.552,3.918-5.226,7.65-8.012,11.18v-0.69H1040.49v0.69c-2.786-3.53-5.46-7.261-8.012-11.18 c-20.417-31.346-33.045-74.649-33.045-122.481c0-95.663,50.512-173.214,112.823-173.214 C1174.566,147.023,1225.078,224.573,1225.078,320.237z"/> <path clip-path="url(#SVGID_2_)" fill="#EA561B" d="M1223.027,320.237c0,46.962-12.399,89.478-32.444,120.254 c-2.506,3.847-5.131,7.51-7.866,10.976c-1.368,1.733-2.763,3.416-4.185,5.049v-3.308H1045.98v3.308 c-1.422-1.632-2.817-3.316-4.185-5.049c-2.735-3.466-5.361-7.129-7.866-10.976c-20.046-30.776-32.444-73.292-32.444-120.254 c0-93.924,49.594-170.065,110.771-170.065C1173.433,150.172,1223.027,226.313,1223.027,320.237z"/> <path clip-path="url(#SVGID_2_)" fill="#EA571B" d="M1220.976,320.237c0,46.092-12.169,87.821-31.843,118.027 c-4.919,7.551-10.306,14.383-16.09,20.382v-5.438h-121.573v5.438c-5.784-5.999-11.172-12.83-16.09-20.382 c-19.674-30.206-31.843-71.935-31.843-118.027c0-92.185,48.676-166.915,108.72-166.915 C1172.3,153.322,1220.976,228.052,1220.976,320.237z"/> <path clip-path="url(#SVGID_2_)" fill="#EA581B" d="M1218.924,320.237c0,45.223-11.939,86.164-31.243,115.8 c-4.826,7.409-10.112,14.111-15.787,19.997v-2.827h-119.279v2.827c-5.675-5.886-10.961-12.588-15.787-19.997 c-19.303-29.636-31.243-70.577-31.243-115.8c0-90.445,47.757-163.766,106.669-163.766 C1171.167,156.471,1218.924,229.791,1218.924,320.237z"/> <path clip-path="url(#SVGID_2_)" fill="#EA591B" d="M1216.873,320.237c0,44.353-11.71,84.507-30.642,113.573 c-4.733,7.266-9.917,13.84-15.483,19.613v-0.215h-116.985v0.215c-5.566-5.773-10.75-12.346-15.483-19.613 c-18.932-29.066-30.642-69.22-30.642-113.573c0-88.706,46.839-160.617,104.617-160.617 C1170.034,159.62,1216.873,231.531,1216.873,320.237z"/> <path clip-path="url(#SVGID_2_)" fill="#EA5A1B" d="M1214.822,320.237c0,43.483-11.48,82.85-30.041,111.346 c-4.64,7.124-9.723,13.569-15.179,19.228c-2.728,2.83-5.55,5.463-8.457,7.888v-5.491h-97.778v5.491 c-2.907-2.424-5.728-5.058-8.457-7.888c-5.457-5.66-10.539-12.104-15.179-19.228c-18.561-28.496-30.041-67.863-30.041-111.346 c0-86.967,45.92-157.467,102.566-157.467S1214.822,233.27,1214.822,320.237z"/> <path clip-path="url(#SVGID_2_)" fill="#EA5B1C" d="M1212.771,320.237c0,42.614-11.25,81.193-29.44,109.119 c-4.547,6.982-9.529,13.297-14.876,18.844c-2.674,2.773-5.439,5.354-8.287,7.73v-2.722h-95.823v2.722 c-2.849-2.376-5.614-4.957-8.287-7.73c-5.347-5.546-10.328-11.862-14.876-18.844c-18.19-27.926-29.44-66.506-29.44-109.119 c0-85.227,45.002-154.318,100.515-154.318C1167.769,165.919,1212.771,235.009,1212.771,320.237z"/> <path clip-path="url(#SVGID_2_)" fill="#EA5C1C" d="M1210.719,320.237c0,41.744-11.021,79.536-28.839,106.892 c-8.909,13.678-19.518,24.747-31.298,32.397v-6.319h-76.653v6.319c-11.78-7.65-22.389-18.719-31.298-32.397 c-17.818-27.356-28.839-65.148-28.839-106.892c0-83.488,44.083-151.169,98.463-151.169 C1166.636,169.068,1210.719,236.749,1210.719,320.237z"/> <path clip-path="url(#SVGID_2_)" fill="#EA5E1C" d="M1208.668,320.237c0,40.874-10.791,77.879-28.238,104.665 c-8.724,13.393-19.111,24.232-30.646,31.722v-3.417h-75.056v3.417c-11.535-7.49-21.922-18.329-30.646-31.722 c-17.447-26.786-28.238-63.791-28.238-104.665c0-81.749,43.165-148.019,96.412-148.019 C1165.503,172.218,1208.668,238.488,1208.668,320.237z"/> <path clip-path="url(#SVGID_2_)" fill="#EA5F1C" d="M1206.617,320.237c0,40.005-10.562,76.222-27.638,102.439 c-8.538,13.108-18.704,23.716-29.994,31.047v-0.515h-73.459v0.515c-11.289-7.331-21.456-17.939-29.994-31.047 c-17.076-26.216-27.638-62.434-27.638-102.439c0-80.009,42.247-144.87,94.361-144.87 C1164.37,175.367,1206.617,240.227,1206.617,320.237z"/> <path clip-path="url(#SVGID_2_)" fill="#EB601C" d="M1204.565,320.237c0,39.135-10.332,74.565-27.037,100.212 c-8.352,12.823-18.298,23.2-29.342,30.372c-5.522,3.586-11.318,6.37-17.327,8.258v-5.871h-37.207v5.871 c-6.009-1.888-11.806-4.672-17.327-8.258c-11.044-7.171-20.989-17.549-29.342-30.372 c-16.705-25.646-27.037-61.077-27.037-100.212c0-78.27,41.328-141.721,92.309-141.721S1204.565,241.967,1204.565,320.237z"/> <ellipse clip-path="url(#SVGID_2_)" fill="#EB621C" cx="1112.256" cy="320.237" rx="90.258" ry="138.571"/> <ellipse clip-path="url(#SVGID_2_)" fill="#EB631C" cx="1112.256" cy="320.237" rx="88.207" ry="135.422"/> <ellipse clip-path="url(#SVGID_2_)" fill="#EB651C" cx="1112.256" cy="320.237" rx="86.155" ry="132.273"/> <ellipse clip-path="url(#SVGID_2_)" fill="#EB671C" cx="1112.256" cy="320.237" rx="84.104" ry="129.123"/> <ellipse clip-path="url(#SVGID_2_)" fill="#EB681C" cx="1112.256" cy="320.237" rx="82.053" ry="125.974"/> <ellipse clip-path="url(#SVGID_2_)" fill="#EC6A1C" cx="1112.256" cy="320.237" rx="80.001" ry="122.825"/> <ellipse clip-path="url(#SVGID_2_)" fill="#EC6C1C" cx="1112.256" cy="320.237" rx="77.95" ry="119.675"/> <ellipse clip-path="url(#SVGID_2_)" fill="#EC6E1C" cx="1112.256" cy="320.237" rx="75.899" ry="116.526"/> <ellipse clip-path="url(#SVGID_2_)" fill="#EC701C" cx="1112.256" cy="320.237" rx="73.848" ry="113.376"/> <ellipse clip-path="url(#SVGID_2_)" fill="#ED731C" cx="1112.256" cy="320.237" rx="71.796" ry="110.227"/> <ellipse clip-path="url(#SVGID_2_)" fill="#ED751C" cx="1112.256" cy="320.237" rx="69.745" ry="107.078"/> <ellipse clip-path="url(#SVGID_2_)" fill="#ED771C" cx="1112.256" cy="320.237" rx="67.694" ry="103.928"/> <ellipse clip-path="url(#SVGID_2_)" fill="#ED7A1C" cx="1112.256" cy="320.237" rx="65.642" ry="100.779"/> <ellipse clip-path="url(#SVGID_2_)" fill="#EE7C1C" cx="1112.256" cy="320.237" rx="63.591" ry="97.63"/> <ellipse clip-path="url(#SVGID_2_)" fill="#EE7F1C" cx="1112.256" cy="320.237" rx="61.54" ry="94.48"/> <ellipse clip-path="url(#SVGID_2_)" fill="#EE811C" cx="1112.256" cy="320.237" rx="59.488" ry="91.331"/> <ellipse clip-path="url(#SVGID_2_)" fill="#EF841C" cx="1112.256" cy="320.237" rx="57.437" ry="88.182"/> <ellipse clip-path="url(#SVGID_2_)" fill="#EF871C" cx="1112.256" cy="320.237" rx="55.386" ry="85.032"/> <ellipse clip-path="url(#SVGID_2_)" fill="#EF8A1C" cx="1112.256" cy="320.237" rx="53.334" ry="81.883"/> <ellipse clip-path="url(#SVGID_2_)" fill="#F08D1C" cx="1112.256" cy="320.237" rx="51.283" ry="78.734"/> <ellipse clip-path="url(#SVGID_2_)" fill="#F0901C" cx="1112.256" cy="320.237" rx="49.232" ry="75.584"/> <ellipse clip-path="url(#SVGID_2_)" fill="#F0931C" cx="1112.256" cy="320.237" rx="47.18" ry="72.435"/> <ellipse clip-path="url(#SVGID_2_)" fill="#F1971C" cx="1112.256" cy="320.237" rx="45.129" ry="69.286"/> <ellipse clip-path="url(#SVGID_2_)" fill="#F19A1C" cx="1112.256" cy="320.237" rx="43.078" ry="66.136"/> <ellipse clip-path="url(#SVGID_2_)" fill="#F29D1C" cx="1112.256" cy="320.237" rx="41.026" ry="62.987"/> <ellipse clip-path="url(#SVGID_2_)" fill="#F2A11C" cx="1112.256" cy="320.237" rx="38.975" ry="59.838"/> <ellipse clip-path="url(#SVGID_2_)" fill="#F3A41C" cx="1112.256" cy="320.237" rx="36.924" ry="56.688"/> <ellipse clip-path="url(#SVGID_2_)" fill="#F3A81B" cx="1112.256" cy="320.237" rx="34.872" ry="53.539"/> <ellipse clip-path="url(#SVGID_2_)" fill="#F4AC1B" cx="1112.256" cy="320.237" rx="32.821" ry="50.39"/> <ellipse clip-path="url(#SVGID_2_)" fill="#F4B01B" cx="1112.256" cy="320.237" rx="30.77" ry="47.24"/> <ellipse clip-path="url(#SVGID_2_)" fill="#F5B41B" cx="1112.256" cy="320.237" rx="28.718" ry="44.091"/> <ellipse clip-path="url(#SVGID_2_)" fill="#F5B71B" cx="1112.256" cy="320.237" rx="26.667" ry="40.942"/> <ellipse clip-path="url(#SVGID_2_)" fill="#F6BB1A" cx="1112.256" cy="320.237" rx="24.616" ry="37.792"/> <ellipse clip-path="url(#SVGID_2_)" fill="#F7BF1A" cx="1112.256" cy="320.237" rx="22.565" ry="34.643"/> <ellipse clip-path="url(#SVGID_2_)" fill="#F7C41A" cx="1112.256" cy="320.237" rx="20.513" ry="31.493"/> <ellipse clip-path="url(#SVGID_2_)" fill="#F8C819" cx="1112.256" cy="320.237" rx="18.462" ry="28.344"/> <ellipse clip-path="url(#SVGID_2_)" fill="#F8CC19" cx="1112.256" cy="320.237" rx="16.411" ry="25.195"/> <ellipse clip-path="url(#SVGID_2_)" fill="#F9D018" cx="1112.256" cy="320.237" rx="14.359" ry="22.045"/> <ellipse clip-path="url(#SVGID_2_)" fill="#FAD417" cx="1112.256" cy="320.237" rx="12.308" ry="18.896"/> <ellipse clip-path="url(#SVGID_2_)" fill="#FAD916" cx="1112.256" cy="320.237" rx="10.257" ry="15.747"/> <ellipse clip-path="url(#SVGID_2_)" fill="#FBDD15" cx="1112.256" cy="320.237" rx="8.205" ry="12.597"/> <ellipse clip-path="url(#SVGID_2_)" fill="#FBE113" cx="1112.256" cy="320.237" rx="6.154" ry="9.448"/> <ellipse clip-path="url(#SVGID_2_)" fill="#FCE612" cx="1112.256" cy="320.237" rx="4.103" ry="6.299"/> <ellipse clip-path="url(#SVGID_2_)" fill="#FCEA10" cx="1112.256" cy="320.237" rx="2.051" ry="3.149"/> </g> </g> <path d="M1060.32,72.575c15.89,9.742,32.198,18.87,47.59,29.343c43.983,29.929,75.789,68.256,87.429,122.089 c8.669,40.096,20.662,79.474,31.165,119.174c0.292,1.104,0.532,2.227,0.71,3.355c11.464,72.478-18.35,107.444-91.72,107.575 c-6.137,0.011-12.275,0.001-19.329,0.001c0,20.918,0,40.06,0,60.754c44.097,1.311,87.909,2.035,131.665,4.02 c151.345,6.865,302.475,16.367,449.816,55.156c27.337,7.197,53.762,18.946,79.404,31.128c18.255,8.672,30.65,23.345,27.374,46.665 c-1.406,10.009,0.643,20.464,0.644,30.717c0.047,474.622,0.041,949.244,0.041,1423.866c0,26.906,0.418,25.777,26.264,35.355 c34.71,12.864,69.47,26.098,102.676,42.312c17.509,8.549,33.498,22.107,47.093,36.344c22.221,23.27,23.458,54.55,1.342,77.458 c-48.973,50.727-80.067,113.647-120.092,170.423c-26.317,37.332-50.483,76.19-75.348,114.535 c-16.233,25.034-40.416,40.117-66.199,52.76c-65.736,32.234-136.309,49.036-207.714,62.286 c-121.622,22.569-244.478,33.115-368.1,35.358c-4.226,0.077-8.422,1.803-12.633,2.761c-38.899,0-77.798,0-116.697,0 c-4.291-0.958-8.569-2.688-12.874-2.759c-117.34-1.956-233.997-11.558-349.69-31.535 c-76.121-13.144-151.341-29.968-221.933-62.556c-28.099-12.971-54.938-28.292-72.663-55.356 c-44.145-67.408-88.347-134.779-132.714-202.041c-14.141-21.439-28.517-42.744-43.452-63.633 c-11.122-15.557-23.319-30.345-35.037-45.476c0-9.153,0-18.305,0-27.458c16.919-35.738,47.571-56.658,82.04-71.283 c41.945-17.798,85.233-32.429,130.204-49.278c0-3.448,0-9.624,0-15.8c0-240.814-0.067-481.629,0.206-722.443 c0.013-11.585-2.892-19.47-11.595-28.07c-24.31-24.022-35.956-53.955-32.791-88.574c0.609-6.66,1.764-14.571,5.72-19.41 c23.113-28.277,27.883-62.308,30.371-96.541c3.393-46.667,4.69-93.486,6.863-139.76c-3.76-0.876-5.381-1.677-5.761-1.282 c-22.471,23.323-47.458,25.925-76.256,11.721c-32.099-15.833-46.363-42.823-41.104-75.631 c6.547-40.843,17.06-81.497,30.373-120.701c18.335-53.995,40.454-106.735,61.906-159.625 c6.569-16.197,16.269-31.124,25.105-46.049c-23.347,63.035-47.978,125.634-69.58,189.261 c-13.891,40.915-25.174,82.952-34.094,125.232c-5.697,27.003-1.463,53.767,26.255,70.426 c38.047,22.867,67.746,10.271,78.174-33.201c1.416-5.902,6.035-11.036,9.171-16.526c2.228,0.79,4.456,1.581,6.684,2.371 c0.49,9.949,1.339,19.895,1.412,29.846c0.531,72.594,2.867,145.409-14.205,216.716c-3.611,15.081-13.505,28.555-19.197,43.275 c-4.399,11.374-10.993,24.281-9.083,35.187c3.356,19.152,9.445,39.227,19.801,55.464c22.544,35.345,57.602,36.556,85.709,5.154 c25.306-28.273,32.774-63.445,36.004-99.756c1.157-13.007,0.186-26.203,1.304-39.261c4.601,40.591,2.78,80.491-14.399,118.391 c-16.989,37.479-41.089,53.021-82.72,51.85c0,6.008,0,11.974,0,17.941c0,267.127,0.184,534.254-0.311,801.38 c-0.045,24.209,9.364,41.697,27.575,55.794c38.272,29.626,83.108,45.087,128.668,58.514 c105.192,31.001,213.24,46.771,322.228,53.939c91.184,5.998,182.755,9.568,274.108,8.78 c167.761-1.448,334.759-14.405,497.143-60.102c42.991-12.098,84.27-31.518,124.75-50.888 c30.492-14.591,43.553-40.259,43.481-76.635c-0.981-497.071-0.661-994.145-0.661-1491.218c0-6.799,0-13.597,0-19.511 c-28.443,11.034-55.742,23.781-84.302,32.297c-84.145,25.09-170.931,37.733-258.092,43.748 c-123.087,8.493-246.468,15.056-369.804,16.836c-94.724,1.366-189.651-4.591-284.326-10.07 c-34.749-2.011-69.037-12.002-103.535-18.354c0.25-1.497,0.5-2.995,0.75-4.492c32.874,2.666,65.707,6.129,98.63,7.837 c73.617,3.818,147.25,8.073,220.931,9.779c140.674,3.259,281.24-0.651,421.336-14.323c101.23-9.88,202.511-20.765,299.31-54.774 c16.955-5.957,33.38-15.004,48.054-25.433c14.958-10.63,15.599-22.341,0.136-31.539c-23.738-14.121-48.964-28.828-75.456-34.642 c-74.073-16.254-148.629-32.916-223.893-40.536c-120.387-12.189-241.499-17.216-364.691-25.429c0,41.225,0,78.02,0,114.223 c-11.719,4.614-15.19,1.266-15.048-8.944c0.374-26.879,0.118-53.767,0.114-80.651c-0.001-6.16,0-12.321,0-19.583 c-38.05,0-74.469-1.236-110.776,0.256c-76.497,3.143-153.075,5.976-229.364,12.118c-108.806,8.759-217.38,20.467-321.981,54.568 c-13.408,4.371-26.286,10.368-39.552,15.668c-6.764-11.386-0.368-15.766,9.405-19.919c54.649-23.225,112.442-34.26,170.524-43.653 c131.143-21.209,263.398-29.884,396.074-32.701c41.069-0.872,82.172-0.136,124.455-0.136c0-22.508,0-42.194,0-61.508 c-20.17-5.007-40.53-8.38-59.69-15.148c-48.979-17.3-64.37-52.801-43.548-100.429c11.186-25.586,26.253-49.496,37.119-75.198 c24.724-58.481,35.052-119.227,23.155-182.545c-0.621-3.305-2.189-6.432-3.316-9.641 C1055.743,72.575,1058.031,72.575,1060.32,72.575z M1923.476,2347.999c-56.583,17.12-113.49,37.653-171.988,51.436 c-201.86,47.561-407.713,60.571-614.229,64.56c-146.398,2.828-292.655-2.493-438.462-16.558 c-117.242-11.31-233.95-26.753-347.71-58.403c-44.174-12.289-87.193-28.732-130.615-43.242c1.336,2.254,3.146,5.607,5.23,8.778 c36.417,55.394,72.707,110.871,109.422,166.066c9.222,13.864,22.643,25.588,29.095,40.478 c8.211,18.95,19.744,34.519,36.979,43.456c32.292,16.744,64.943,34.135,99.399,45.138 c152.161,48.589,309.886,62.186,468.318,68.264c120.041,4.605,240.096,2.062,359.784-9.518 c99.063-9.585,197.877-22.058,293.117-51.911c41.583-13.034,82.716-30.348,120.297-52.183 c20.692-12.022,35.473-36.177,49.657-57.076C1836.985,2480.669,1880.672,2413.017,1923.476,2347.999z M359.581,2143.069 c-63.681,19.029-125.115,34.884-175.012,77.027c-8.039,6.79-14.318,16.347-19.333,25.735c-2.389,4.471-1.761,12.496,0.679,17.294 c17.891,35.193,43.207,62.52,81.989,75.442c17.299,5.764,33.806,13.917,51.126,19.606 c132.797,43.627,270.354,62.105,408.704,75.347c152.66,14.612,305.749,18.106,459.07,14.932 c161.376-3.34,321.956-15.25,481.142-42.487c82.265-14.076,163.65-32.006,241.265-64.025 c33.831-13.956,63.873-31.167,82.033-65.674c12.804-24.33,14.577-31.785-6.157-51.434 c-44.647-42.311-102.15-57.561-159.976-76.156c0,13.252-1.151,24.236,0.201,34.902c5.618,44.308-15.111,75.144-52.482,93.208 c-40.393,19.524-81.971,38.233-124.982,50.417c-163.457,46.308-331.681,57.741-500.511,61.289 c-118.399,2.488-236.62-2.974-354.317-16.6c-92.023-10.654-183.713-24.494-271.416-55.292 c-36.797-12.922-72.025-31.469-105.999-50.899c-25.734-14.718-38.783-39.36-36.245-70.808 C360.637,2179.035,359.581,2162.988,359.581,2143.069z M1066.011,84.064c-0.869,2.887-1.593,4.012-1.454,5.018 c11.362,82.169-9.7,157.3-49.333,228.466c-5.267,9.457-10.752,18.935-14.669,28.976c-16.027,41.081-3.674,70.182,37.434,86.534 c41.917,16.674,85.851,19.149,129.843,12.419c34.34-5.253,51.915-26.142,54.085-60.801c0.918-14.662,1.042-30.059-2.37-44.18 c-10.712-44.332-22.464-88.454-35.318-132.216C1166.226,146.989,1119.139,113.056,1066.011,84.064z"/> </g> </g> <g> <g> <g> <linearGradient id="SVGID_3_" gradientUnits="userSpaceOnUse" x1="1766.7399" y1="2177.9814" x2="2675.8652" y2="2177.9814"> <stop offset="0" style="stop-color:#B2B2B2"/> <stop offset="0.0243" style="stop-color:#B9B9B8"/> <stop offset="0.0987" style="stop-color:#C8C8C7"/> <stop offset="0.1853" style="stop-color:#D2D2D2"/> <stop offset="0.2944" style="stop-color:#D8D8D8"/> <stop offset="0.4983" style="stop-color:#DADADA"/> <stop offset="0.66" style="stop-color:#D8D8D7"/> <stop offset="0.7861" style="stop-color:#D0D0D0"/> <stop offset="0.8998" style="stop-color:#C3C3C3"/> <stop offset="1" style="stop-color:#B2B2B2"/> </linearGradient> <path fill="url(#SVGID_3_)" d="M1766.74,1904.748c145.625,74.553,296.734,112.671,454.734,110.139 c157.016-2.517,309.627-32.027,454.391-109.306c-3.436,25.774-6.693,50.394-10.005,75.004 c-11.795,87.662-23.605,175.321-35.417,262.979c-4.492,33.335-9.117,66.647-13.408,100.016 c-0.796,6.195-3.202,9.724-8.031,12.535c-68.765,40.032-141.572,65.715-217.311,81.104 c-50.026,10.165-100.48,14.724-151.234,13.901c-114.562-1.858-227.646-16.567-337.517-55.493 c-22.448-7.953-43.728-20.354-65.342-31.239c-9.004-4.535-13.243-12.89-14.732-24.678 c-15.656-123.95-31.777-247.824-47.79-371.715C1772.408,1947.342,1769.637,1926.706,1766.74,1904.748z"/> </g> <linearGradient id="SVGID_4_" gradientUnits="userSpaceOnUse" x1="1727.0916" y1="1792.8289" x2="2717.2991" y2="1792.8289"> <stop offset="0" style="stop-color:#D0E8F7"/> <stop offset="0.0243" style="stop-color:#D7ECF9"/> <stop offset="0.0987" style="stop-color:#E9F5FC"/> <stop offset="0.1853" style="stop-color:#F6FBFE"/> <stop offset="0.2944" style="stop-color:#FDFEFF"/> <stop offset="0.4983" style="stop-color:#FFFFFF"/> <stop offset="0.66" style="stop-color:#FCFEFF"/> <stop offset="0.7861" style="stop-color:#F3F9FD"/> <stop offset="0.8998" style="stop-color:#E4F2FB"/> <stop offset="1" style="stop-color:#D0E8F7"/> </linearGradient> <path fill="url(#SVGID_4_)" d="M1727.403,1579.306c17.468,26.592,41.895,38.368,66.618,49.162 c45.758,19.978,93.542,30.798,141.721,39.415c117.478,21.01,235.798,25.609,354.397,21.943 c82.244-2.543,164.19-10.124,245.247-27.32c5.722-1.214,8.403,0.841,10.386,6.817c3.656,11.018,2.902,21.746,0.995,33.095 c-2.454,14.606-3.943,29.508-4.753,44.362c-0.436,7.978,2.039,15.027,11.636,13.314c1.644-0.293,5.17,2.976,5.493,5.073 c1.261,8.182,2.408,16.602,2.039,24.842c-0.427,9.529-4.465,20.102,4.29,26.659c9.621,7.206,20.302,6.175,30.275-0.137 c9.908-6.271,15.168-16.867,18.341-28.777c4.796-17.998,3.817-35.686-2.969-52.989c-7.471-19.05-15.02-38.081-21.774-57.47 c-2.761-7.926-3.524-16.768-5.192-25.17c47.351-17.14,96.936-25.962,132.808-73.526c0,8.796,0.837,16.323-0.126,23.534 c-12.705,95.075-25.607,190.116-38.764,285.11c-0.524,3.786-3.382,8.55-6.311,10.286c-48.827,28.941-100.632,48.8-153.612,64.771 c-89.11,26.861-179.883,40.906-271.881,44.152c-163.15,5.756-319.362-29.569-468.68-105.327 c-8.883-4.507-12.849-10.062-14.273-21.549c-11.537-93.061-23.899-185.987-35.795-278.991 C1726.63,1593.636,1727.403,1586.406,1727.403,1579.306z"/> <g> <linearGradient id="SVGID_5_" gradientUnits="userSpaceOnUse" x1="1827.3163" y1="2549.2563" x2="2614.2905" y2="2549.2563"> <stop offset="0" style="stop-color:#D0E8F7"/> <stop offset="0.0243" style="stop-color:#D7ECF9"/> <stop offset="0.0987" style="stop-color:#E9F5FC"/> <stop offset="0.1853" style="stop-color:#F6FBFE"/> <stop offset="0.2944" style="stop-color:#FDFEFF"/> <stop offset="0.4983" style="stop-color:#FFFFFF"/> <stop offset="0.66" style="stop-color:#FCFEFF"/> <stop offset="0.7861" style="stop-color:#F3F9FD"/> <stop offset="0.8998" style="stop-color:#E4F2FB"/> <stop offset="1" style="stop-color:#D0E8F7"/> </linearGradient> <path fill="url(#SVGID_5_)" d="M2570.824,2633.543c2.28,0.437,4.56,0.874,6.975,1.336c-1.703,12.75-9.167,20.227-17.12,26.821 c-18.52,15.355-39.627,24.64-61.181,32.542c-53.145,19.485-107.8,30.621-163.266,35.505c-41.756,3.677-83.708,6.505-125.557,6.25 c-89.554-0.544-178.36-10.354-264.485-40.487c-21.169-7.406-41.516-18.508-61.455-29.745 c-14.734-8.303-22.712-22.097-25.108-42.642c-9.561-81.999-20.938-163.719-31.609-245.548c-0.392-3.01-0.426-6.082-0.703-10.282 c36.319,25.364,75.732,38.339,115.506,49.956c59.987,17.521,120.915,29.287,182.596,34.736 c42.848,3.785,85.878,7.162,128.811,6.926c123.936-0.681,242.428-30.288,354.039-93.369c1.69-0.955,3.449-1.749,6.023-3.044 c-3.072,22.941-6.026,45.099-9.008,67.253c-8.474,62.944-16.902,125.896-25.531,188.812 C2578.907,2624.716,2580.975,2634.023,2570.824,2633.543z"/> </g> <radialGradient id="SVGID_6_" cx="2706.896" cy="1933.9127" r="311.4258" gradientTransform="matrix(0.0133 -0.8209 1.434 0.0306 -582.9604 3816.9053)" gradientUnits="userSpaceOnUse"> <stop offset="0" style="stop-color:#FFFFFF"/> <stop offset="0.5149" style="stop-color:#FDFEFF"/> <stop offset="0.7003" style="stop-color:#F7FBFE"/> <stop offset="0.8325" style="stop-color:#ECF6FC"/> <stop offset="0.9387" style="stop-color:#DDEFFA"/> <stop offset="1" style="stop-color:#D0E8F7"/> </radialGradient> <path fill="url(#SVGID_6_)" d="M2549.567,1751.121c-2.757-15.632,0.029-30.828,3.63-45.834 c3.862-16.093,2.983-31.309-3.838-46.297c-2.355-5.175-4.743-6.487-9.564-5.453c-74.285,15.943-149.363,23.524-224.767,27.237 c-26.653,1.312-53.351,1.442-80.029,2.094c-2.675,0.065-5.352,0.009-8.966,0.009c0-9.015,0-17.287,0-25.368 c-9.503-2.992-6.964,4.478-7.207,8.981c-0.268,4.973-0.061,9.98-0.061,16.348c-11.108,0-21.896,0.218-32.677-0.035 c-75.182-1.764-150.174-6.743-224.702-18.708c-56.125-9.011-111.911-20.141-165.144-43.409 c-14.143-6.182-27.607-14.679-40.828-23.24c-6.003-3.887-11.261-9.93-15.79-16.036c-9.03-12.176-10.016,9.267-0.13-1.707 c10.364-11.505,22.441-21.963,35.312-29.328c39.548-22.629,82.474-33.465,125.573-42.755 c82.87-17.863,166.624-26.12,250.842-28.81c5.987-0.191,11.97-0.53,17.958-0.648c5.702-0.112,11.408-0.024,18.435-0.024 c-2.475,4.833-4.479,9.379-6.981,13.53c-16.107,26.721-32.773,53.018-48.283,80.184c-6.311,11.053-12.169-11.152-14.732,1.542 c-4.471,22.149,5.498,38.828,21.136,50.675c24.577,18.618,51.921,28.752,81.265,30.473c22.828,1.339,45.784,1.905,68.173-5.334 c25.02-8.09,38.725-25.984,39.629-55.8c1.468-48.402,0.033-62.189-7.34-110.07c-0.129-0.839,0.056-1.741,0.136-3.543 c18.052,1.146,35.942,1.92,53.781,3.48c61.929,5.418,123.608,13.173,184.498,27.71c37.065,8.849,73.884,18.975,108.2,37.854 c11.64,6.404,23.029,14.5,32.735,24.193c15.943,15.92,16.206-1.345,0.047,13.956c-11.981,11.345-25.757,21.349-40.127,27.957 c-23.146,10.643-47.371,18.264-71.286,26.614c-11.058,3.861-12.49,3.613-9.868,16.655c3.458,17.198,8.722,33.989,14.071,50.589 c3.476,10.787,8.858,20.745,12.732,31.389c7.142,19.624,6.462,39.126-2.992,57.571c-5.487,10.704-13.688,16.722-25.159,15.013 c-9.461-1.41-11.124-4.638-10.222-15.625c0.806-9.82,1.404-19.989,0.068-29.635 C2565.265,1754.283,2561.577,1751.706,2549.567,1751.121z M2354.555,1596.735c21.332,4.612,42.804-26.042,63.94-20.457 c12.313,3.254,24.35,8.488,35.997,14.208c6.302,3.094,6.494,8.942,1.111,14.007c-5.207,4.898-11.008,9.212-17.037,12.655 c-10.144,5.793-20.676,10.694-31.045,15.97c6.785-0.449,13.357-1.901,19.486-4.656c9.823-4.415,19.971-8.544,28.864-14.865 c15.001-10.662,14.126-23.904-1.42-33.083c-4.557-2.69-9.452-4.8-14.373-6.474 C2412.198,1564.56,2383.457,1597.096,2354.555,1596.735z M1944.904,1590.967c48.471-25.427,100.674,12.786,152.327,2.957 c-3.517-0.619-5.341-1.245-7.156-1.212c-18.187,0.333-36.433-0.147-54.544,1.41c-24.929,2.143-49.812-28.724-72.829-16.4 C1956.356,1581.119,1950.815,1586.497,1944.904,1590.967z"/> <path opacity="0.5" fill="#FFED00" d="M2209.628,1648.395c0,0-145.104,12.351-119.553-55.683s200.321-205.951,26.204-335.258 c-55.306-41.073,120.04-42.867,152.162,0.15c35.282,47.249,82.707,148.382,86.114,266.432 C2357.962,1642.086,2345.9,1657.418,2209.628,1648.395z"/> <g> <g> <defs> <path id="SVGID_7_" d="M2178.393,1258.604c3.271-0.629,4.308-1.15,5.236-0.961c54.767,11.159,98.782,143.574,122.964,203.941 c9.25,23.091,11.737,47.83,12.225,73.06c0.525,27.151,2.911,19.73,2.67,46.855c-0.357,40.166-12.386,56.331-46.727,62.722 c-39.712,7.391-78.858,4.446-115.603-16.206c-9.82-5.519-19.208-13.238-26.998-22.04 c-11.227-12.686-15.882-18.492-8.279-33.667c8.93-17.823,17.429-15.859,27.166-33.148c15.196-26.98,37.479-48.045,51.267-75.94 c5.923-11.983,8.189-27.013,9.735-41.005c1.841-16.659-5.536-133.622-16.521-144.424 C2189.892,1272.249,2184.858,1265.897,2178.393,1258.604z"/> </defs> <clipPath id="SVGID_8_"> <use xlink:href="#SVGID_7_" overflow="visible"/> </clipPath> <rect x="2116.28" y="1257.454" clip-path="url(#SVGID_8_)" fill="#FCEA10" width="205.45" height="394.158"/> <path clip-path="url(#SVGID_8_)" fill="#FCEA10" d="M2247.845,1372.296c33.045,3.331,61.3,22.837,80.268,51.683h-5.383v188.033 h1.192c-5.091,7.405-10.724,14.213-16.81,20.333s-12.624,11.552-19.524,16.206c-3.45,2.327-6.991,4.459-10.61,6.386v-2.325 h-93.75v4.148c-3.603-1.813-7.104-3.838-10.495-6.063c-13.565-8.899-25.371-20.987-34.855-35.409 c-18.968-28.845-28.65-67.03-24.549-107.716C2121.529,1426.2,2181.755,1365.635,2247.845,1372.296z"/> <path clip-path="url(#SVGID_8_)" fill="#FCE811" d="M2247.659,1374.138c32.632,3.289,60.533,22.552,79.264,51.036h-4.194 v185.683h0.055c-5.027,7.312-10.59,14.035-16.6,20.078c-12.019,12.087-25.825,21.458-40.705,27.395v-5.719h-81.631v2.434 c-3.557-1.79-7.015-3.79-10.364-5.987c-13.396-8.787-25.054-20.724-34.419-34.967c-18.731-28.485-28.292-66.192-24.242-106.369 C2122.923,1427.368,2182.395,1367.56,2247.659,1374.138z"/> <path clip-path="url(#SVGID_8_)" fill="#FCE612" d="M2247.474,1375.98c32.219,3.247,59.767,22.266,78.261,50.391h-3.005v172.077 h5.957c-2.207,3.89-4.556,7.645-7.038,11.255c-4.964,7.22-10.456,13.857-16.39,19.824 c-11.867,11.934-25.498,21.186-40.189,27.048v-3.964h-69.773v5.387c-7.402-2.679-14.444-6.24-21.057-10.578 c-13.226-8.676-24.737-20.462-33.984-34.524c-18.494-28.124-27.934-65.354-23.935-105.023 C2124.316,1428.536,2183.036,1369.485,2247.474,1375.98z"/> <path clip-path="url(#SVGID_8_)" fill="#FCE313" d="M2247.288,1377.821c31.806,3.206,59.001,21.981,77.258,49.745h-1.816 v169.871h4.73c-2.178,3.84-4.498,7.547-6.948,11.111c-4.9,7.127-10.322,13.68-16.18,19.57 c-11.715,11.781-25.171,20.914-39.674,26.701v-2.208h-68.879v3.613c-7.308-2.645-14.259-6.16-20.788-10.442 c-13.057-8.565-24.419-20.2-33.548-34.082c-18.257-27.764-27.576-64.516-23.629-103.676 C2125.709,1429.704,2183.676,1371.41,2247.288,1377.821z"/> <path clip-path="url(#SVGID_8_)" fill="#FBE114" d="M2247.103,1379.663c31.393,3.164,58.235,21.695,76.254,49.099h-0.627 v167.665h3.503c-2.15,3.79-4.439,7.449-6.858,10.967c-4.836,7.035-10.188,13.502-15.969,19.316 c-11.563,11.628-24.844,20.643-39.159,26.355v-0.453h-45.359v6.992c-62.786-6.328-107.367-74.125-99.576-151.428 S2184.317,1373.335,2247.103,1379.663z"/> <path clip-path="url(#SVGID_8_)" fill="#FBDF14" d="M2246.917,1381.505c30.98,3.122,57.469,21.41,75.251,48.452 c2.223,3.38,4.31,6.897,6.252,10.539h-5.69v154.92h2.276c-2.122,3.74-4.381,7.351-6.767,10.822 c-4.773,6.942-10.054,13.324-15.76,19.062c-11.411,11.475-24.517,20.371-38.644,26.008c-14.126,5.637-29.273,8.015-44.763,6.454 c-61.959-6.245-105.955-73.15-98.266-149.436C2128.496,1432.04,2184.957,1375.26,2246.917,1381.505z"/> <path clip-path="url(#SVGID_8_)" fill="#FBDC15" d="M2246.731,1383.347c30.567,3.081,56.702,21.124,74.248,47.806 c2.193,3.335,4.252,6.806,6.169,10.398h-4.418v141.411h6.911c-7.245,15.741-16.83,29.607-28.088,40.929 c-22.517,22.644-51.728,35.109-82.294,32.029c-61.134-6.162-104.542-72.174-96.956-147.443 C2129.889,1433.208,2185.598,1377.185,2246.731,1383.347z"/> <path clip-path="url(#SVGID_8_)" fill="#FADA16" d="M2246.546,1385.188c30.154,3.039,55.936,20.839,73.244,47.16 c2.164,3.29,4.195,6.714,6.085,10.258h-3.146v139.5h5.605c-7.147,15.528-16.603,29.207-27.709,40.376 c-22.213,22.338-51.029,34.635-81.182,31.596c-60.307-6.078-103.129-71.199-95.646-145.451 C2131.283,1434.376,2186.238,1379.11,2246.546,1385.188z"/> <path clip-path="url(#SVGID_8_)" fill="#FAD817" d="M2246.36,1387.03c29.741,2.998,55.17,20.553,72.241,46.514 c2.134,3.245,4.137,6.622,6.002,10.117h-1.873v137.589h4.299c-7.049,15.315-16.375,28.807-27.329,39.823 c-21.909,22.032-50.33,34.161-80.07,31.163c-59.481-5.995-101.717-70.224-94.335-143.458S2186.879,1381.035,2246.36,1387.03z"/> <path clip-path="url(#SVGID_8_)" fill="#FAD517" d="M2246.174,1388.872c29.328,2.956,54.404,20.268,71.238,45.868 c4.208,6.4,7.902,13.318,11.018,20.659h-5.7v124.995h2.993c-6.951,15.102-16.148,28.407-26.95,39.27 c-21.604,21.726-49.631,33.686-78.958,30.73c-58.655-5.912-100.304-69.248-93.025-141.466 C2134.069,1436.711,2187.519,1382.96,2246.174,1388.872z"/> <path clip-path="url(#SVGID_8_)" fill="#F9D317" d="M2245.989,1390.713c28.914,2.914,53.637,19.983,70.234,45.222 c4.149,6.31,7.791,13.131,10.863,20.369h-4.356v123.235h1.687c-6.853,14.89-15.92,28.007-26.57,38.717 c-21.3,21.42-48.931,33.212-77.846,30.297c-57.829-5.828-98.891-68.273-91.715-139.474S2188.16,1384.885,2245.989,1390.713z"/> <path clip-path="url(#SVGID_8_)" fill="#F9D118" d="M2245.803,1392.555c28.501,2.873,52.871,19.697,69.231,44.576 c4.09,6.22,7.679,12.943,10.708,20.078h-3.012v121.474h0.381c-6.755,14.677-15.693,27.607-26.191,38.164 c-20.996,21.114-48.232,32.737-76.734,29.865c-57.003-5.745-97.478-67.298-90.405-137.481 C2136.856,1439.047,2188.8,1386.81,2245.803,1392.555z"/> <path clip-path="url(#SVGID_8_)" fill="#F9CE18" d="M2245.617,1394.397c28.088,2.831,52.105,19.412,68.228,43.93 c4.031,6.13,7.568,12.755,10.552,19.786h-1.668v108.552h3.656c-1.386,3.822-2.916,7.545-4.58,11.161 c-6.657,14.464-15.465,27.207-25.811,37.611c-20.691,20.808-47.533,32.263-75.622,29.432 c-56.177-5.662-96.066-66.322-89.094-135.489S2189.441,1388.735,2245.617,1394.397z"/> <path clip-path="url(#SVGID_8_)" fill="#F8CC18" d="M2245.432,1396.239c27.675,2.789,51.338,19.126,67.224,43.284 c3.971,6.04,7.457,12.568,10.397,19.496h-0.323v95.38h5.944c-2.145,7.898-4.895,15.448-8.174,22.574 c-6.559,14.252-15.238,26.807-25.431,37.058c-20.387,20.502-46.834,31.788-74.51,28.999 c-55.351-5.579-94.653-65.347-87.784-133.496C2139.643,1441.383,2190.081,1390.66,2245.432,1396.239z"/> <path clip-path="url(#SVGID_8_)" fill="#F8CA19" d="M2245.246,1398.08c27.262,2.748,50.573,18.841,66.221,42.638 c7.824,11.899,13.733,25.724,17.263,40.77h-6.001v72.391h4.515c-2.113,7.78-4.822,15.218-8.052,22.237 c-6.461,14.039-15.01,26.406-25.052,36.505c-20.083,20.196-46.135,31.314-73.398,28.566 c-54.524-5.495-93.24-64.372-86.474-131.504C2141.036,1442.551,2190.722,1392.585,2245.246,1398.08z"/> <path clip-path="url(#SVGID_8_)" fill="#F8C719" d="M2245.061,1399.922c26.849,2.706,49.806,18.555,65.218,41.992 c7.706,11.719,13.525,25.334,17.002,40.152h-4.55v71.294h3.087c-2.081,7.662-4.749,14.987-7.93,21.9 c-6.364,13.826-14.783,26.006-24.672,35.952c-19.779,19.89-45.436,30.839-72.285,28.133 c-53.698-5.412-91.828-63.396-85.164-129.511C2142.429,1443.719,2191.362,1394.51,2245.061,1399.922z"/> <path clip-path="url(#SVGID_8_)" fill="#F7C51A" d="M2244.875,1401.764c26.436,2.665,49.04,18.27,64.214,41.346 c7.587,11.538,13.317,24.944,16.74,39.534h-3.1v46.638h5.999c-6.561,65.098-54.741,113.55-107.614,108.221 c-52.872-5.329-90.415-62.421-83.854-127.519C2143.823,1444.887,2192.003,1396.435,2244.875,1401.764z"/> <path clip-path="url(#SVGID_8_)" fill="#F7C31A" d="M2244.689,1403.605c26.023,2.623,48.274,17.984,63.211,40.7 c7.469,11.358,13.109,24.554,16.479,38.916h-1.649v45.91h4.503c-6.458,64.081-53.886,111.776-105.932,106.53 c-52.046-5.246-89.002-61.446-82.543-125.526C2145.216,1446.055,2192.643,1398.36,2244.689,1403.605z"/> <path clip-path="url(#SVGID_8_)" fill="#F7C01A" d="M2244.504,1405.447c25.61,2.581,47.507,17.699,62.208,40.054 c14.7,22.355,22.204,51.948,19.025,83.48c-6.356,63.063-53.031,110.001-104.251,104.839 c-51.22-5.162-87.589-60.47-81.233-123.534C2146.609,1447.223,2193.284,1400.285,2244.504,1405.447z"/> <path clip-path="url(#SVGID_8_)" fill="#F6BE1A" d="M2244.318,1407.289c25.197,2.54,46.741,17.413,61.204,39.408 c14.463,21.995,21.845,51.11,18.719,82.133c-6.253,62.046-52.175,108.227-102.569,103.148 c-50.394-5.079-86.177-59.495-79.923-121.541C2148.002,1448.391,2193.924,1402.21,2244.318,1407.289z"/> <ellipse transform="matrix(0.1003 -0.995 0.995 0.1003 497.0944 3588.9814)" clip-path="url(#SVGID_8_)" fill="#F6BC1A" cx="2232.995" cy="1519.633" rx="111.063" ry="90.205"/> <ellipse transform="matrix(0.1003 -0.995 0.995 0.1003 497.0944 3588.9814)" clip-path="url(#SVGID_8_)" fill="#F6B91B" cx="2232.995" cy="1519.633" rx="109.212" ry="88.702"/> <ellipse transform="matrix(0.1003 -0.995 0.995 0.1003 497.0944 3588.9814)" clip-path="url(#SVGID_8_)" fill="#F5B71B" cx="2232.995" cy="1519.633" rx="107.361" ry="87.198"/> <ellipse transform="matrix(0.1003 -0.995 0.995 0.1003 497.0944 3588.9814)" clip-path="url(#SVGID_8_)" fill="#F5B41B" cx="2232.995" cy="1519.633" rx="105.51" ry="85.695"/> <ellipse transform="matrix(0.1003 -0.995 0.995 0.1003 497.0944 3588.9814)" clip-path="url(#SVGID_8_)" fill="#F5B21B" cx="2232.995" cy="1519.633" rx="103.659" ry="84.191"/> <ellipse transform="matrix(0.1003 -0.995 0.995 0.1003 497.0944 3588.9814)" clip-path="url(#SVGID_8_)" fill="#F4B01B" cx="2232.995" cy="1519.633" rx="101.807" ry="82.688"/> <ellipse transform="matrix(0.1003 -0.995 0.995 0.1003 497.0944 3588.9814)" clip-path="url(#SVGID_8_)" fill="#F4AD1B" cx="2232.995" cy="1519.633" rx="99.956" ry="81.184"/> <ellipse transform="matrix(0.1003 -0.995 0.995 0.1003 497.0944 3588.9814)" clip-path="url(#SVGID_8_)" fill="#F4AB1B" cx="2232.995" cy="1519.633" rx="98.105" ry="79.681"/> <ellipse transform="matrix(0.1003 -0.995 0.995 0.1003 497.0944 3588.9814)" clip-path="url(#SVGID_8_)" fill="#F3A91B" cx="2232.995" cy="1519.633" rx="96.254" ry="78.178"/> <ellipse transform="matrix(0.1003 -0.995 0.995 0.1003 497.0944 3588.9814)" clip-path="url(#SVGID_8_)" fill="#F3A61C" cx="2232.995" cy="1519.633" rx="94.403" ry="76.674"/> <ellipse transform="matrix(0.1003 -0.995 0.995 0.1003 497.0944 3588.9814)" clip-path="url(#SVGID_8_)" fill="#F3A41C" cx="2232.995" cy="1519.633" rx="92.552" ry="75.171"/> <ellipse transform="matrix(0.1003 -0.995 0.995 0.1003 497.0944 3588.9814)" clip-path="url(#SVGID_8_)" fill="#F2A21C" cx="2232.995" cy="1519.633" rx="90.701" ry="73.667"/> <ellipse transform="matrix(0.1003 -0.995 0.995 0.1003 497.0944 3588.9814)" clip-path="url(#SVGID_8_)" fill="#F29F1C" cx="2232.995" cy="1519.633" rx="88.85" ry="72.164"/> <ellipse transform="matrix(0.1003 -0.995 0.995 0.1003 497.0944 3588.9814)" clip-path="url(#SVGID_8_)" fill="#F29D1C" cx="2232.995" cy="1519.633" rx="86.999" ry="70.661"/> <ellipse transform="matrix(0.1003 -0.995 0.995 0.1003 497.0944 3588.9814)" clip-path="url(#SVGID_8_)" fill="#F19B1C" cx="2232.995" cy="1519.633" rx="85.148" ry="69.157"/> <ellipse transform="matrix(0.1003 -0.995 0.995 0.1003 497.0944 3588.9814)" clip-path="url(#SVGID_8_)" fill="#F1981C" cx="2232.995" cy="1519.633" rx="83.297" ry="67.654"/> <ellipse transform="matrix(0.1003 -0.995 0.995 0.1003 497.0944 3588.9814)" clip-path="url(#SVGID_8_)" fill="#F1961C" cx="2232.995" cy="1519.633" rx="81.446" ry="66.15"/> <ellipse transform="matrix(0.1003 -0.995 0.995 0.1003 497.0944 3588.9814)" clip-path="url(#SVGID_8_)" fill="#F1941C" cx="2232.995" cy="1519.633" rx="79.595" ry="64.647"/> <ellipse transform="matrix(0.1003 -0.995 0.995 0.1003 497.0944 3588.9814)" clip-path="url(#SVGID_8_)" fill="#F0921C" cx="2232.995" cy="1519.633" rx="77.744" ry="63.143"/> <ellipse transform="matrix(0.1003 -0.995 0.995 0.1003 497.0944 3588.9814)" clip-path="url(#SVGID_8_)" fill="#F08F1C" cx="2232.995" cy="1519.633" rx="75.893" ry="61.64"/> <ellipse transform="matrix(0.1003 -0.995 0.995 0.1003 497.0944 3588.9814)" clip-path="url(#SVGID_8_)" fill="#F08D1C" cx="2232.995" cy="1519.633" rx="74.042" ry="60.137"/> <ellipse transform="matrix(0.1003 -0.995 0.995 0.1003 497.0944 3588.9814)" clip-path="url(#SVGID_8_)" fill="#EF8B1C" cx="2232.995" cy="1519.633" rx="72.191" ry="58.633"/> <ellipse transform="matrix(0.1003 -0.995 0.995 0.1003 497.0944 3588.9814)" clip-path="url(#SVGID_8_)" fill="#EF891C" cx="2232.995" cy="1519.633" rx="70.34" ry="57.13"/> <ellipse transform="matrix(0.1003 -0.995 0.995 0.1003 497.0944 3588.9814)" clip-path="url(#SVGID_8_)" fill="#EF861C" cx="2232.995" cy="1519.633" rx="68.489" ry="55.626"/> <ellipse transform="matrix(0.1003 -0.995 0.995 0.1003 497.0944 3588.9814)" clip-path="url(#SVGID_8_)" fill="#EF841C" cx="2232.995" cy="1519.633" rx="66.638" ry="54.123"/> <ellipse transform="matrix(0.1003 -0.995 0.995 0.1003 497.0944 3588.9814)" clip-path="url(#SVGID_8_)" fill="#EE821C" cx="2232.995" cy="1519.633" rx="64.787" ry="52.62"/> <ellipse transform="matrix(0.1003 -0.995 0.995 0.1003 497.0944 3588.9814)" clip-path="url(#SVGID_8_)" fill="#EE801C" cx="2232.995" cy="1519.633" rx="62.936" ry="51.116"/> <ellipse transform="matrix(0.1003 -0.995 0.995 0.1003 497.0944 3588.9814)" clip-path="url(#SVGID_8_)" fill="#EE7E1C" cx="2232.995" cy="1519.633" rx="61.084" ry="49.613"/> <ellipse transform="matrix(0.1003 -0.995 0.995 0.1003 497.0944 3588.9814)" clip-path="url(#SVGID_8_)" fill="#EE7C1C" cx="2232.995" cy="1519.633" rx="59.233" ry="48.109"/> <ellipse transform="matrix(0.1003 -0.995 0.995 0.1003 497.0944 3588.9814)" clip-path="url(#SVGID_8_)" fill="#ED7A1C" cx="2232.995" cy="1519.633" rx="57.382" ry="46.606"/> <ellipse transform="matrix(0.1003 -0.995 0.995 0.1003 497.0944 3588.9814)" clip-path="url(#SVGID_8_)" fill="#ED781C" cx="2232.995" cy="1519.633" rx="55.531" ry="45.102"/> <ellipse transform="matrix(0.1003 -0.995 0.995 0.1003 497.0944 3588.9814)" clip-path="url(#SVGID_8_)" fill="#ED761C" cx="2232.995" cy="1519.633" rx="53.68" ry="43.599"/> <ellipse transform="matrix(0.1003 -0.995 0.995 0.1003 497.0944 3588.9814)" clip-path="url(#SVGID_8_)" fill="#ED741C" cx="2232.995" cy="1519.633" rx="51.829" ry="42.096"/> <ellipse transform="matrix(0.1003 -0.995 0.995 0.1003 497.0944 3588.9814)" clip-path="url(#SVGID_8_)" fill="#EC721C" cx="2232.995" cy="1519.633" rx="49.978" ry="40.592"/> <ellipse transform="matrix(0.1003 -0.995 0.995 0.1003 497.0944 3588.9814)" clip-path="url(#SVGID_8_)" fill="#EC701C" cx="2232.995" cy="1519.633" rx="48.127" ry="39.089"/> <ellipse transform="matrix(0.1003 -0.995 0.995 0.1003 497.0944 3588.9814)" clip-path="url(#SVGID_8_)" fill="#EC6E1C" cx="2232.995" cy="1519.633" rx="46.276" ry="37.585"/> <ellipse transform="matrix(0.1003 -0.995 0.995 0.1003 497.0944 3588.9814)" clip-path="url(#SVGID_8_)" fill="#EC6C1C" cx="2232.995" cy="1519.633" rx="44.425" ry="36.082"/> <ellipse transform="matrix(0.1003 -0.995 0.995 0.1003 497.0944 3588.9814)" clip-path="url(#SVGID_8_)" fill="#EC6A1C" cx="2232.995" cy="1519.633" rx="42.574" ry="34.579"/> <ellipse transform="matrix(0.1003 -0.995 0.995 0.1003 497.0944 3588.9814)" clip-path="url(#SVGID_8_)" fill="#EB681C" cx="2232.995" cy="1519.633" rx="40.723" ry="33.075"/> <ellipse transform="matrix(0.1003 -0.995 0.995 0.1003 497.0944 3588.9814)" clip-path="url(#SVGID_8_)" fill="#EB671C" cx="2232.995" cy="1519.633" rx="38.872" ry="31.572"/> <ellipse transform="matrix(0.1003 -0.995 0.995 0.1003 497.0944 3588.9814)" clip-path="url(#SVGID_8_)" fill="#EB651C" cx="2232.995" cy="1519.633" rx="37.021" ry="30.068"/> <ellipse transform="matrix(0.1003 -0.995 0.995 0.1003 497.0944 3588.9814)" clip-path="url(#SVGID_8_)" fill="#EB631C" cx="2232.995" cy="1519.633" rx="35.17" ry="28.565"/> <ellipse transform="matrix(0.1003 -0.995 0.995 0.1003 497.0944 3588.9814)" clip-path="url(#SVGID_8_)" fill="#EB621C" cx="2232.995" cy="1519.633" rx="33.319" ry="27.061"/> <ellipse transform="matrix(0.1003 -0.995 0.995 0.1003 497.0944 3588.9814)" clip-path="url(#SVGID_8_)" fill="#EB601C" cx="2232.995" cy="1519.633" rx="31.468" ry="25.558"/> <ellipse transform="matrix(0.1003 -0.995 0.995 0.1003 497.0944 3588.9814)" clip-path="url(#SVGID_8_)" fill="#EA5F1C" cx="2232.995" cy="1519.633" rx="29.617" ry="24.055"/> <ellipse transform="matrix(0.1003 -0.995 0.995 0.1003 497.0944 3588.9814)" clip-path="url(#SVGID_8_)" fill="#EA5D1C" cx="2232.995" cy="1519.633" rx="27.766" ry="22.551"/> <ellipse transform="matrix(0.1003 -0.995 0.995 0.1003 497.0944 3588.9814)" clip-path="url(#SVGID_8_)" fill="#EA5C1C" cx="2232.995" cy="1519.633" rx="25.915" ry="21.048"/> <ellipse transform="matrix(0.1003 -0.995 0.995 0.1003 497.0944 3588.9814)" clip-path="url(#SVGID_8_)" fill="#EA5A1B" cx="2232.995" cy="1519.633" rx="24.064" ry="19.544"/> <ellipse transform="matrix(0.1003 -0.995 0.995 0.1003 497.0944 3588.9814)" clip-path="url(#SVGID_8_)" fill="#EA591B" cx="2232.995" cy="1519.633" rx="22.213" ry="18.041"/> <ellipse transform="matrix(0.1003 -0.995 0.995 0.1003 497.0944 3588.9814)" clip-path="url(#SVGID_8_)" fill="#EA571B" cx="2232.995" cy="1519.633" rx="20.361" ry="16.538"/> <ellipse transform="matrix(0.1003 -0.995 0.995 0.1003 497.0944 3588.9814)" clip-path="url(#SVGID_8_)" fill="#EA561B" cx="2232.995" cy="1519.633" rx="18.51" ry="15.034"/> <ellipse transform="matrix(0.1003 -0.995 0.995 0.1003 497.0944 3588.9814)" clip-path="url(#SVGID_8_)" fill="#E9551B" cx="2232.995" cy="1519.633" rx="16.659" ry="13.531"/> <ellipse transform="matrix(0.1003 -0.995 0.995 0.1003 497.0944 3588.9814)" clip-path="url(#SVGID_8_)" fill="#E9531B" cx="2232.995" cy="1519.633" rx="14.808" ry="12.027"/> <ellipse transform="matrix(0.1003 -0.995 0.995 0.1003 497.0944 3588.9814)" clip-path="url(#SVGID_8_)" fill="#E9521B" cx="2232.995" cy="1519.633" rx="12.957" ry="10.524"/> <ellipse transform="matrix(0.1003 -0.995 0.995 0.1003 497.0944 3588.9814)" clip-path="url(#SVGID_8_)" fill="#E9511B" cx="2232.995" cy="1519.633" rx="11.106" ry="9.02"/> <ellipse transform="matrix(0.1003 -0.995 0.995 0.1003 497.0944 3588.9814)" clip-path="url(#SVGID_8_)" fill="#E9501B" cx="2232.995" cy="1519.633" rx="9.255" ry="7.517"/> <ellipse transform="matrix(0.1003 -0.995 0.995 0.1003 497.0944 3588.9814)" clip-path="url(#SVGID_8_)" fill="#E9501B" cx="2232.995" cy="1519.633" rx="7.404" ry="6.014"/> <ellipse transform="matrix(0.1003 -0.995 0.995 0.1003 497.0944 3588.9814)" clip-path="url(#SVGID_8_)" fill="#E94F1B" cx="2232.995" cy="1519.633" rx="5.553" ry="4.51"/> <ellipse transform="matrix(0.1003 -0.995 0.995 0.1003 497.0944 3588.9814)" clip-path="url(#SVGID_8_)" fill="#E94E1B" cx="2232.995" cy="1519.633" rx="3.702" ry="3.007"/> <ellipse transform="matrix(0.1003 -0.995 0.995 0.1003 497.0944 3588.9814)" clip-path="url(#SVGID_8_)" fill="#E94E1B" cx="2232.995" cy="1519.633" rx="1.851" ry="1.503"/> </g> </g> </g> <g> <path d="M2190.683,1249.748c9.043,3.144,18.141,6.094,27.119,9.464c46.02,17.269,79.412,154.07,97.887,206.126 c1.01,2.848,4.614,6.062,7.237,6.345c54.156,5.846,108.487,9.911,162.489,17.193c57.048,7.693,113.153,21.185,167.523,43.579 c17.621,7.258,34.198,14.672,48.283,29.624c13.751,14.599,18.804-1.557,22.531,18.124c0.446,2.354,1.11,4.653,1.674,6.977 c0,3.753,0,7.505,0,11.258c-2.698,17.378-5.676,34.705-8.048,52.141c-13.053,95.954-25.985,191.929-38.907,287.906 c-13.296,98.754-26.496,197.525-39.809,296.276c-13.938,103.385-27.985,206.75-41.932,310.133 c-4.122,30.551-8.15,61.119-12.05,91.708c-1.531,12.012-7.072,21.706-15.555,27.464c-17,11.538-34.159,23.516-52.505,31.55 c-50.647,22.179-103.808,32.896-157.485,39.563c-31.641,3.93-63.506,5.467-95.266,8.156c-1.525,0.129-3.003,0.989-4.502,1.509 c-24.53,0-49.059,0-73.588,0c-15.652-1.254-31.307-2.461-46.955-3.77c-71.293-5.963-141.914-16.631-209.852-43.437 c-17.106-6.749-33.512-16.29-49.535-26.07c-15.373-9.384-23.758-23.864-26.384-45.178 c-15.498-125.822-32.188-251.45-48.539-377.133c-17.234-132.472-34.569-264.927-51.8-397.399 c-10.484-80.599-20.847-161.219-31.314-241.821c-0.265-2.04-1.108-3.982-1.681-5.97c0-8.13,0-16.261,0-24.392 c1.019-3.431,33.835-33.813,64.775-44.429c26.029-8.931,51.826-18.959,78.173-26.423c55.601-15.752,112.272-24.744,169.311-29.546 c51.558-4.34,103.263-6.388,154.894-9.635c2.312-0.145,5.701-1.456,6.61-3.426c6.378-13.825,11.869-28.024,11.992-44.214 c0.1-13.105-4.395-127.169-12.604-135.918c-5.776-6.156-11.471-12.442-16.844-19.054c-4.444-5.469-5.08-11.499-0.059-17.28 C2180.871,1249.748,2185.777,1249.748,2190.683,1249.748z M1766.74,1904.748c2.897,21.958,5.669,42.594,8.338,63.247 c16.013,123.891,32.134,247.765,47.79,371.715c1.489,11.788,5.728,20.144,14.732,24.678 c21.614,10.885,42.895,23.286,65.342,31.239c109.871,38.925,222.954,53.635,337.517,55.493 c50.754,0.823,101.207-3.736,151.234-13.901c75.739-15.389,148.546-41.071,217.311-81.104c4.829-2.811,7.235-6.34,8.031-12.535 c4.291-33.369,8.917-66.681,13.408-100.016c11.812-87.658,23.622-175.318,35.417-262.979c3.312-24.61,6.569-49.231,10.005-75.004 c-144.764,77.279-297.375,106.789-454.391,109.306C2063.474,2017.419,1912.365,1979.3,1766.74,1904.748z M1727.403,1579.306 c0,7.1-0.772,14.33,0.117,21.28c11.896,93.003,24.258,185.93,35.795,278.991c1.424,11.487,5.389,17.042,14.273,21.549 c149.318,75.758,305.531,111.083,468.68,105.327c91.998-3.246,182.771-17.291,271.881-44.152 c52.98-15.97,104.785-35.83,153.612-64.771c2.929-1.736,5.787-6.5,6.311-10.286c13.157-94.994,26.059-190.035,38.764-285.11 c0.964-7.211,0.126-14.739,0.126-23.534c-35.872,47.564-85.458,56.386-132.808,73.526c1.667,8.401,2.431,17.244,5.192,25.17 c6.754,19.389,14.302,38.42,21.774,57.47c6.786,17.303,7.765,34.991,2.969,52.989c-3.174,11.91-8.433,22.506-18.341,28.777 c-9.973,6.312-20.655,7.343-30.275,0.137c-8.755-6.557-4.717-17.13-4.29-26.659c0.369-8.24-0.778-16.66-2.039-24.842 c-0.323-2.097-3.849-5.366-5.493-5.073c-9.597,1.713-12.072-5.336-11.636-13.314c0.811-14.853,2.299-29.756,4.753-44.362 c1.907-11.35,2.661-22.077-0.995-33.095c-1.983-5.976-4.664-8.031-10.386-6.817c-81.056,17.196-163.002,24.777-245.247,27.32 c-118.599,3.667-236.92-0.933-354.397-21.943c-48.179-8.617-95.963-19.437-141.721-39.415 C1769.298,1617.674,1744.87,1605.898,1727.403,1579.306z M2570.824,2633.543c10.15,0.48,8.083-8.827,8.927-14.979 c8.629-62.916,17.057-125.868,25.531-188.812c2.982-22.153,5.936-44.312,9.008-67.253c-2.573,1.295-4.333,2.089-6.023,3.044 c-111.611,63.081-230.104,92.688-354.039,93.369c-42.933,0.236-85.963-3.14-128.811-6.926 c-61.681-5.449-122.609-17.216-182.596-34.736c-39.774-11.617-79.187-24.592-115.506-49.956c0.277,4.2,0.311,7.272,0.703,10.282 c10.671,81.829,22.048,163.549,31.609,245.548c2.396,20.544,10.374,34.338,25.108,42.642 c19.939,11.237,40.286,22.338,61.455,29.745c86.125,30.133,174.93,39.943,264.485,40.487c41.849,0.254,83.802-2.574,125.557-6.25 c55.466-4.884,110.121-16.02,163.266-35.505c21.553-7.902,42.661-17.187,61.181-32.542c7.952-6.594,15.417-14.071,17.12-26.821 C2575.385,2634.417,2573.105,2633.98,2570.824,2633.543z M2549.567,1751.121c12.01,0.585,15.698,3.161,17.53,16.393 c1.335,9.646,0.738,19.815-0.068,29.635c-0.902,10.987,0.76,14.215,10.222,15.625c11.471,1.709,19.672-4.309,25.159-15.013 c9.454-18.444,10.134-37.947,2.992-57.571c-3.874-10.643-9.256-20.601-12.732-31.389c-5.349-16.6-10.613-33.391-14.071-50.589 c-2.623-13.042-1.19-12.794,9.868-16.655c23.915-8.35,48.139-15.971,71.286-26.614c14.371-6.608,28.146-16.611,40.127-27.957 c16.159-15.301,15.896,1.964-0.047-13.956c-9.707-9.692-21.095-17.789-32.735-24.193c-34.316-18.878-71.135-29.005-108.2-37.854 c-60.89-14.537-122.569-22.292-184.498-27.71c-17.838-1.561-35.729-2.334-53.781-3.48c-0.08,1.802-0.265,2.705-0.136,3.543 c7.373,47.881,8.808,61.668,7.34,110.07c-0.904,29.816-14.609,47.71-39.629,55.8c-22.388,7.239-45.344,6.673-68.173,5.334 c-29.344-1.721-56.688-11.855-81.265-30.473c-15.638-11.847-25.607-28.526-21.136-50.675 c2.563-12.694,67.521-90.423,69.996-95.256c-7.028,0-12.733-0.088-18.435,0.024c-5.987,0.118-11.971,0.457-17.958,0.648 c-84.218,2.689-167.972,10.947-250.842,28.81c-43.099,9.29-86.025,20.126-125.573,42.755 c-12.871,7.365-24.948,17.823-35.312,29.328c-9.886,10.974-8.9-10.469,0.13,1.707c4.529,6.107,9.787,12.149,15.79,16.036 c13.221,8.561,26.686,17.058,40.828,23.24c53.233,23.267,109.02,34.398,165.144,43.409 c74.528,11.965,149.52,16.945,224.702,18.708c10.781,0.253,21.569,0.035,32.677,0.035c0-6.368-0.207-11.375,0.061-16.348 c0.243-4.504-2.297-11.973,7.207-8.981c0,8.081,0,16.353,0,25.368c3.614,0,6.291,0.057,8.966-0.009 c26.678-0.652,53.375-0.781,80.029-2.094c75.404-3.713,150.482-11.293,224.767-27.237c4.821-1.035,7.209,0.278,9.564,5.453 c6.821,14.987,7.7,30.204,3.838,46.297C2549.595,1720.294,2546.809,1735.49,2549.567,1751.121z M2178.393,1258.604 c6.465,7.293,11.499,13.644,17.136,19.188c10.985,10.803,18.362,127.765,16.521,144.424c-1.546,13.992-3.812,29.021-9.735,41.005 c-13.788,27.895-13.788,50.344-42.946,77.249c-14.582,13.455-21.75,20.307-30.68,38.13c-7.603,15.175-7.755,14.689,3.472,27.375 c7.79,8.802,17.178,16.521,26.998,22.04c36.744,20.651,75.891,23.597,115.603,16.206c34.34-6.391,46.37-22.557,46.727-62.722 c0.241-27.124-2.145-19.704-2.67-46.855c-0.488-25.229-2.975-49.968-12.225-73.06c-24.182-60.367-68.197-192.782-122.964-203.941 C2182.702,1257.454,2181.664,1257.975,2178.393,1258.604z"/> <path d="M2354.555,1596.735c28.902,0.361,57.643-32.175,85.523-22.693c4.921,1.674,9.817,3.783,14.373,6.474 c15.547,9.179,16.421,22.421,1.42,33.083c-8.893,6.321-19.042,10.449-28.864,14.865c-6.128,2.755-12.701,4.207-19.486,4.656 c10.369-5.276,20.9-10.177,31.045-15.97c6.029-3.443,11.83-7.757,17.037-12.655c5.384-5.065,5.191-10.913-1.111-14.007 c-11.648-5.719-23.684-10.954-35.997-14.208C2397.359,1570.693,2375.886,1601.347,2354.555,1596.735z"/> <path d="M1944.904,1590.967c5.911-4.469,11.452-9.848,17.799-13.246c23.017-12.323,47.9,18.543,72.829,16.4 c18.111-1.557,36.357-1.077,54.544-1.41c1.815-0.033,3.639,0.593,7.156,1.212 C2045.578,1603.753,1993.375,1565.54,1944.904,1590.967z"/> </g> </g> </svg>